<svg width="45" height="38" viewBox="0 0 45 38" fill="none" xmlns="http://www.w3.org/2000/svg">
<path d="M2.17742 0C0.970766 0 0 0.970766 0 2.17742V6.53226C0 7.73891 0.970766 8.70968 2.17742 8.70968H6.53226C7.73891 8.70968 8.70968 7.73891 8.70968 6.53226V2.17742C8.70968 0.970766 7.73891 0 6.53226 0H2.17742ZM15.9677 1.45161C14.3619 1.45161 13.0645 2.74899 13.0645 4.35484C13.0645 5.96069 14.3619 7.25806 15.9677 7.25806H42.0968C43.7026 7.25806 45 5.96069 45 4.35484C45 2.74899 43.7026 1.45161 42.0968 1.45161H15.9677ZM15.9677 15.9677C14.3619 15.9677 13.0645 17.2651 13.0645 18.871C13.0645 20.4768 14.3619 21.7742 15.9677 21.7742H42.0968C43.7026 21.7742 45 20.4768 45 18.871C45 17.2651 43.7026 15.9677 42.0968 15.9677H15.9677ZM15.9677 30.4839C14.3619 30.4839 13.0645 31.7813 13.0645 33.3871C13.0645 34.9929 14.3619 36.2903 15.9677 36.2903H42.0968C43.7026 36.2903 45 34.9929 45 33.3871C45 31.7813 43.7026 30.4839 42.0968 30.4839H15.9677ZM0 16.6935V21.0484C0 22.255 0.970766 23.2258 2.17742 23.2258H6.53226C7.73891 23.2258 8.70968 22.255 8.70968 21.0484V16.6935C8.70968 15.4869 7.73891 14.5161 6.53226 14.5161H2.17742C0.970766 14.5161 0 15.4869 0 16.6935ZM2.17742 29.0323C0.970766 29.0323 0 30.003 0 31.2097V35.5645C0 36.7712 0.970766 37.7419 2.17742 37.7419H6.53226C7.73891 37.7419 8.70968 36.7712 8.70968 35.5645V31.2097C8.70968 30.003 7.73891 29.0323 6.53226 29.0323H2.17742Z" fill="white"/>
</svg>
