<svg width="30" height="30" viewBox="0 0 30 30" fill="none" xmlns="http://www.w3.org/2000/svg">
<g clip-path="url(#clip0_73_7525)">
<path d="M22.9688 0H7.03125C3.148 0 0 3.148 0 7.03125V22.9688C0 26.852 3.148 30 7.03125 30H22.9688C26.852 30 30 26.852 30 22.9688V7.03125C30 3.148 26.852 0 22.9688 0Z" fill="#5865F2"/>
<mask id="mask0_73_7525" style="mask-type:luminance" maskUnits="userSpaceOnUse" x="3" y="5" width="24" height="20">
<path d="M3.28125 5.97656H26.7188V24.1324H3.28125V5.97656Z" fill="white"/>
</mask>
<g mask="url(#mask0_73_7525)">
<path d="M23.1221 7.59324C21.6026 6.89572 19.999 6.39832 18.3515 6.11351C18.3365 6.11074 18.3211 6.11276 18.3073 6.11928C18.2935 6.12581 18.2822 6.1365 18.2749 6.14984C18.0688 6.51617 17.8406 6.99429 17.6808 7.37C15.8793 7.10023 14.0872 7.10023 12.3227 7.37C12.1628 6.98586 11.9263 6.51617 11.7194 6.14984C11.7117 6.13677 11.7003 6.12632 11.6866 6.11983C11.6729 6.11335 11.6576 6.11115 11.6426 6.11351C9.99498 6.39775 8.39133 6.89517 6.87204 7.59324C6.85904 7.59876 6.84807 7.60818 6.84064 7.62019C3.8022 12.1596 2.96993 16.5874 3.37821 20.9604C3.37935 20.9711 3.38263 20.9814 3.38787 20.9909C3.3931 21.0003 3.40018 21.0086 3.40868 21.0152C5.41329 22.4874 7.35521 23.3812 9.26103 23.9736C9.27585 23.978 9.29168 23.9778 9.30638 23.973C9.32108 23.9682 9.33396 23.959 9.34329 23.9466C9.79411 23.3309 10.1959 22.6818 10.5406 21.9992C10.5453 21.9899 10.5481 21.9796 10.5485 21.9691C10.549 21.9587 10.5473 21.9482 10.5435 21.9385C10.5396 21.9287 10.5338 21.9199 10.5263 21.9125C10.5188 21.9052 10.5098 21.8996 10.4999 21.896C9.86243 21.6541 9.25552 21.3594 8.67169 21.0246C8.66106 21.0183 8.65213 21.0095 8.64569 20.999C8.63925 20.9885 8.6355 20.9765 8.63477 20.9642C8.63405 20.9519 8.63636 20.9396 8.64151 20.9283C8.64666 20.9171 8.65449 20.9074 8.66431 20.8999C8.78747 20.8078 8.90852 20.7129 9.02736 20.6154C9.03776 20.6067 9.05036 20.6012 9.06374 20.5994C9.07711 20.5976 9.09073 20.5995 9.10306 20.605C12.9388 22.3563 17.0914 22.3563 20.8818 20.605C20.8942 20.5992 20.908 20.5969 20.9215 20.5986C20.9351 20.6003 20.948 20.6057 20.9586 20.6144C21.0775 20.7126 21.1989 20.8077 21.3226 20.8999C21.3324 20.9073 21.3403 20.917 21.3455 20.9282C21.3508 20.9393 21.3532 20.9516 21.3525 20.9639C21.3519 20.9763 21.3482 20.9882 21.3419 20.9988C21.3355 21.0094 21.3267 21.0182 21.3161 21.0246C20.7319 21.3657 20.12 21.6568 19.4869 21.895C19.4771 21.8988 19.4682 21.9046 19.4607 21.912C19.4533 21.9195 19.4475 21.9284 19.4438 21.9382C19.44 21.9481 19.4384 21.9586 19.439 21.9691C19.4396 21.9796 19.4424 21.9899 19.4472 21.9992C19.7978 22.6764 20.1976 23.327 20.6434 23.9457C20.6525 23.9584 20.6653 23.9679 20.6801 23.9729C20.6949 23.9779 20.7108 23.9781 20.7257 23.9736C22.6408 23.3812 24.5827 22.4874 26.5874 21.0152C26.596 21.0089 26.6032 21.0008 26.6084 20.9915C26.6137 20.9822 26.6169 20.9719 26.6179 20.9613C27.1066 15.9057 25.7993 11.5141 23.1526 7.62113C23.1461 7.60848 23.1353 7.59858 23.1221 7.59324ZM11.1134 18.2977C9.95853 18.2977 9.00697 17.2375 9.00697 15.9355C9.00697 14.6334 9.94013 13.5732 11.1134 13.5732C12.2958 13.5732 13.2381 14.6428 13.2196 15.9355C13.2196 17.2375 12.2866 18.2977 11.1134 18.2977ZM18.9012 18.2977C17.7463 18.2977 16.7949 17.2375 16.7949 15.9355C16.7949 14.6334 17.7279 13.5732 18.9012 13.5732C20.0836 13.5732 21.026 14.6428 21.0076 15.9355C21.0076 17.2375 20.0836 18.2977 18.9012 18.2977Z" fill="white"/>
</g>
</g>
<defs>
<clipPath id="clip0_73_7525">
<rect width="30" height="30" fill="white"/>
</clipPath>
</defs>
</svg>
