<svg width="45" height="36" viewBox="0 0 45 36" fill="none" xmlns="http://www.w3.org/2000/svg">
<path d="M18 0H40.5C42.982 0 45 2.01797 45 4.5V20.25C45 22.732 42.982 24.75 40.5 24.75H18C15.518 24.75 13.5 22.732 13.5 20.25V4.5C13.5 2.01797 15.518 0 18 0ZM33.4688 7.50234C33.1523 7.03125 32.625 6.75 32.0625 6.75C31.5 6.75 30.9727 7.03125 30.6562 7.50234L26.7188 13.4086L25.5023 11.8828C25.1789 11.482 24.6937 11.25 24.1875 11.25C23.6813 11.25 23.1891 11.482 22.8727 11.8828L18.3727 17.5078C17.9648 18.0141 17.8875 18.7102 18.1687 19.2937C18.45 19.8773 19.0406 20.25 19.6875 20.25H25.3125H28.6875H38.8125C39.4383 20.25 40.0078 19.9055 40.3031 19.357C40.5984 18.8086 40.5633 18.1406 40.2188 17.6273L33.4688 7.50234ZM23.625 6.75C23.625 6.15326 23.3879 5.58097 22.966 5.15901C22.544 4.73705 21.9717 4.5 21.375 4.5C20.7783 4.5 20.206 4.73705 19.784 5.15901C19.3621 5.58097 19.125 6.15326 19.125 6.75C19.125 7.34674 19.3621 7.91903 19.784 8.34099C20.206 8.76295 20.7783 9 21.375 9C21.9717 9 22.544 8.76295 22.966 8.34099C23.3879 7.91903 23.625 7.34674 23.625 6.75ZM4.5 9H11.25V27V29.25C11.25 30.4945 12.2555 31.5 13.5 31.5H22.5C23.7445 31.5 24.75 30.4945 24.75 29.25V27H36V31.5C36 33.982 33.982 36 31.5 36H4.5C2.01797 36 0 33.982 0 31.5V13.5C0 11.018 2.01797 9 4.5 9ZM5.0625 13.5C4.44375 13.5 3.9375 14.0062 3.9375 14.625V15.75C3.9375 16.3688 4.44375 16.875 5.0625 16.875H6.1875C6.80625 16.875 7.3125 16.3688 7.3125 15.75V14.625C7.3125 14.0062 6.80625 13.5 6.1875 13.5H5.0625ZM5.0625 20.8125C4.44375 20.8125 3.9375 21.3187 3.9375 21.9375V23.0625C3.9375 23.6813 4.44375 24.1875 5.0625 24.1875H6.1875C6.80625 24.1875 7.3125 23.6813 7.3125 23.0625V21.9375C7.3125 21.3187 6.80625 20.8125 6.1875 20.8125H5.0625ZM5.0625 28.125C4.44375 28.125 3.9375 28.6312 3.9375 29.25V30.375C3.9375 30.9938 4.44375 31.5 5.0625 31.5H6.1875C6.80625 31.5 7.3125 30.9938 7.3125 30.375V29.25C7.3125 28.6312 6.80625 28.125 6.1875 28.125H5.0625ZM28.6875 29.25V30.375C28.6875 30.9938 29.1937 31.5 29.8125 31.5H30.9375C31.5563 31.5 32.0625 30.9938 32.0625 30.375V29.25C32.0625 28.6312 31.5563 28.125 30.9375 28.125H29.8125C29.1937 28.125 28.6875 28.6312 28.6875 29.25Z" fill="white"/>
</svg>
