<svg width="24" height="24" viewBox="0 0 24 24" fill="none" xmlns="http://www.w3.org/2000/svg">
<g clip-path="url(#clip0_73_7519)">
<path d="M0.508167 11.8563C0.507609 13.8728 1.03449 15.8417 2.03635 17.5771L0.412354 23.5066L6.48045 21.9156C8.1588 22.8292 10.0393 23.308 11.9502 23.3081H11.9552C18.2636 23.3081 23.3988 18.1748 23.4015 11.8653C23.4027 8.80792 22.2131 5.93295 20.0518 3.76997C17.8909 1.60718 15.0169 0.415458 11.9548 0.414062C5.64566 0.414062 0.510865 5.54709 0.508261 11.8563" fill="url(#paint0_linear_73_7519)"/>
<path d="M0.0995349 11.8527C0.0988837 13.9417 0.644651 15.981 1.68223 17.7786L0 23.9207L6.28567 22.2726C8.01758 23.2168 9.96754 23.7147 11.9517 23.7154H11.9568C18.4915 23.7154 23.8112 18.3975 23.814 11.8621C23.8151 8.69488 22.5827 5.71656 20.3442 3.47609C18.1054 1.23591 15.1287 0.00130233 11.9568 0C5.42102 0 0.10214 5.31721 0.0995349 11.8527ZM3.84279 17.469L3.60809 17.0965C2.62149 15.5277 2.10074 13.7149 2.10149 11.8534C2.10363 6.4213 6.52447 2.00186 11.9606 2.00186C14.5931 2.00298 17.0672 3.02921 18.928 4.89116C20.7887 6.7533 21.8127 9.22865 21.812 11.8614C21.8096 17.2935 17.3887 21.7135 11.9568 21.7135H11.9529C10.1843 21.7126 8.44967 21.2376 6.93693 20.34L6.57693 20.1265L2.84688 21.1045L3.84279 17.4689V17.469Z" fill="url(#paint1_linear_73_7519)"/>
<path d="M8.99328 6.89771C8.77133 6.4044 8.53775 6.39445 8.32668 6.3858C8.15384 6.37836 7.95626 6.37892 7.75886 6.37892C7.56128 6.37892 7.24026 6.45324 6.96891 6.74952C6.69728 7.04608 5.93188 7.76273 5.93188 9.22031C5.93188 10.678 6.99356 12.0866 7.14156 12.2845C7.28975 12.482 9.19114 15.5689 12.2025 16.7564C14.7052 17.7433 15.2145 17.547 15.7577 17.4975C16.3009 17.4482 17.5106 16.7811 17.7574 16.0892C18.0043 15.3975 18.0043 14.8046 17.9303 14.6807C17.8563 14.5572 17.6587 14.4831 17.3624 14.335C17.066 14.1868 15.6095 13.4701 15.3379 13.3712C15.0663 13.2724 14.8688 13.2231 14.6712 13.5198C14.4737 13.8159 13.9063 14.4831 13.7334 14.6807C13.5606 14.8787 13.3877 14.9034 13.0915 14.7552C12.795 14.6065 11.8409 14.2941 10.7089 13.2849C9.82816 12.4996 9.23356 11.5298 9.06072 11.2331C8.88788 10.937 9.04221 10.7764 9.19077 10.6288C9.32388 10.496 9.48714 10.2828 9.63542 10.1099C9.78314 9.93687 9.83244 9.81343 9.93123 9.61585C10.0301 9.41808 9.98063 9.24506 9.90668 9.09687C9.83244 8.94868 9.25672 7.48347 8.99328 6.89771Z" fill="white"/>
</g>
<defs>
<linearGradient id="paint0_linear_73_7519" x1="1149.87" y1="2309.67" x2="1149.87" y2="0.414062" gradientUnits="userSpaceOnUse">
<stop stop-color="#1FAF38"/>
<stop offset="1" stop-color="#60D669"/>
</linearGradient>
<linearGradient id="paint1_linear_73_7519" x1="1190.7" y1="2392.07" x2="1190.7" y2="0" gradientUnits="userSpaceOnUse">
<stop stop-color="#F9F9F9"/>
<stop offset="1" stop-color="white"/>
</linearGradient>
<clipPath id="clip0_73_7519">
<rect width="23.814" height="24" fill="white"/>
</clipPath>
</defs>
</svg>
